<svg xmlns="http://www.w3.org/2000/svg" viewBox="0 0 20 20" fill="none" stroke="currentColor"
  stroke-width="2">
  <g clip-path="url(#clip0_96_12025)">
    <path d="M10 18.3334V10.8334" stroke="currentColor" stroke-width="2" stroke-linecap="round"
      stroke-linejoin="round" />
    <path
      d="M12.6417 1.84165C12.8492 1.7256 13.0831 1.66467 13.3209 1.66467C13.5586 1.66467 13.7925 1.7256 14 1.84165L17.5 3.80832C17.7479 3.94849 17.9541 4.15195 18.0976 4.39792C18.2411 4.6439 18.3167 4.92355 18.3167 5.20832C18.3167 5.49308 18.2411 5.77274 18.0976 6.01871C17.9541 6.26468 17.7479 6.46815 17.5 6.60832L7.35002 12.325C7.14185 12.4437 6.90633 12.5062 6.66668 12.5062C6.42703 12.5062 6.19152 12.4437 5.98335 12.325L2.50002 10.3583C2.25214 10.2181 2.04592 10.0147 1.90244 9.76871C1.75895 9.52274 1.68335 9.24308 1.68335 8.95832C1.68335 8.67355 1.75895 8.3939 1.90244 8.14792C2.04592 7.90195 2.25214 7.69849 2.50002 7.55832L12.6417 1.84165Z"
      stroke="currentColor" stroke-width="2" stroke-linecap="round" stroke-linejoin="round" />
    <path
      d="M16.6666 10.8334V14.0584C16.6669 14.3729 16.5808 14.6815 16.4177 14.9504C16.2546 15.2194 16.0207 15.4383 15.7416 15.5834L10.7416 18.15C10.5125 18.2691 10.2581 18.3313 9.99992 18.3313C9.74174 18.3313 9.48735 18.2691 9.25825 18.15L4.25825 15.5834C3.97916 15.4383 3.74528 15.2194 3.58215 14.9504C3.41903 14.6815 3.33293 14.3729 3.33325 14.0584V10.8334"
      stroke="currentColor" stroke-width="2" stroke-linecap="round" stroke-linejoin="round" />
    <path
      d="M17.5 10.3583C17.7479 10.2181 17.9541 10.0147 18.0976 9.76868C18.2411 9.52271 18.3167 9.24305 18.3167 8.95829C18.3167 8.67353 18.2411 8.39387 18.0976 8.1479C17.9541 7.90193 17.7479 7.69846 17.5 7.55829L7.35835 1.83329C7.15158 1.71488 6.91745 1.65259 6.67918 1.65259C6.44091 1.65259 6.20678 1.71488 6.00002 1.83329L2.50002 3.80829C2.25214 3.94846 2.04592 4.15193 1.90244 4.3979C1.75895 4.64387 1.68335 4.92353 1.68335 5.20829C1.68335 5.49305 1.75895 5.77271 1.90244 6.01868C2.04592 6.26466 2.25214 6.46812 2.50002 6.60829L12.65 12.325C12.8567 12.4437 13.0908 12.5062 13.3292 12.5062C13.5675 12.5062 13.8017 12.4437 14.0083 12.325L17.5 10.3583Z"
      stroke="currentColor" stroke-width="2" stroke-linecap="round" stroke-linejoin="round" />
  </g>
  <defs>
    <clipPath id="clip0_96_12025">
      <rect width="20" height="20" fill="white" />
    </clipPath>
  </defs>
</svg>
