<svg xmlns="http://www.w3.org/2000/svg" viewBox="0 0 12 12" fill="none">
  <path
    d="M6.00245 11.0013C3.24102 11.0013 1.00244 8.76277 1.00244 6.00132C1.00244 3.23992 3.24102 1.00134 6.00245 1.00134C8.76385 1.00134 11.0025 3.23992 11.0025 6.00132C11.0025 8.76277 8.76385 11.0013 6.00245 11.0013ZM6.00245 10.0013C8.2116 10.0013 10.0025 8.21047 10.0025 6.00132C10.0025 3.7922 8.2116 2.00134 6.00245 2.00134C3.7933 2.00134 2.00244 3.7922 2.00244 6.00132C2.00244 8.21047 3.7933 10.0013 6.00245 10.0013ZM4.25244 7.00132H7.00245C7.1405 7.00132 7.25245 6.88942 7.25245 6.75132C7.25245 6.61327 7.1405 6.50132 7.00245 6.50132H5.00245C4.31209 6.50132 3.75244 5.94172 3.75244 5.25132C3.75244 4.56098 4.31209 4.00134 5.00245 4.00134H5.50245V3.00134H6.50245V4.00134H7.75245V5.00132H5.00245C4.86437 5.00132 4.75244 5.11327 4.75244 5.25132C4.75244 5.38942 4.86437 5.50132 5.00245 5.50132H7.00245C7.6928 5.50132 8.25245 6.06097 8.25245 6.75132C8.25245 7.44172 7.6928 8.00132 7.00245 8.00132H6.50245V9.00132H5.50245V8.00132H4.25244V7.00132Z"
    fill="#265894" />
</svg>
