<svg width="32" height="32" viewBox="0 0 32 32" fill="none" xmlns="http://www.w3.org/2000/svg">
<path d="M12.0001 17.3333V21.3333H20.0001V17.3333H29.3334V26.6666C29.3334 27.403 28.7365 28 28.0001 28H4.00008C3.26371 28 2.66675 27.403 2.66675 26.6666V17.3333H12.0001ZM14.6667 14.6666H17.3334V18.6666H14.6667V14.6666ZM9.33341 6.66665V2.66665C9.33341 1.93027 9.93037 1.33331 10.6667 1.33331H21.3334C22.0698 1.33331 22.6667 1.93027 22.6667 2.66665V6.66665H28.0001C28.7365 6.66665 29.3334 7.26361 29.3334 7.99998V14.6666H20.0001V12H12.0001V14.6666H2.66675V7.99998C2.66675 7.26361 3.26371 6.66665 4.00008 6.66665H9.33341ZM12.0001 3.99998V6.66665H20.0001V3.99998H12.0001Z" fill="#3770B6"/>
</svg>
