<svg xmlns="http://www.w3.org/2000/svg" viewBox="0 0 699 547" fill="none">
<path d="M187.5 396.5C199.9 411.234 206.1 427.767 206.1 446.1C205.7 467.167 198.5 484.8 184.5 499C170.5 513.2 153.5 520.3 133.5 520.3H50.4001C35.6668 520.3 27.0334 516.3 24.5001 508.3C23.2334 504.7 22.6001 499.234 22.6001 491.9V316.5C22.6001 311.5 22.7668 307.834 23.1001 305.5C23.3668 303.167 24.3668 300.434 26.1001 297.3C29.0334 291.567 37.2334 288.7 50.7001 288.7H130.3C149.7 288.7 165.933 295.434 179 308.9C192.667 322.634 199.5 339.067 199.5 358.2C199.5 372.134 195.5 384.9 187.5 396.5ZM150.2 442.9C150.2 437.834 149.633 433.834 148.5 430.9C147.3 427.967 145.333 425.867 142.6 424.6C138.4 422.933 132.5 422.067 124.9 422C117.367 422.067 111.7 420.6 107.9 417.6C104.1 414.667 102.2 408.634 102.2 399.5C102.2 390.3 104.133 384.234 108 381.3C111.933 378.367 118.433 376.9 127.5 376.9C135.9 376.9 140.933 374.667 142.6 370.2C143.267 367.934 143.6 364.167 143.6 358.9C143.6 353.634 141.867 349.934 138.4 347.8C134.933 345.667 129.7 344.6 122.7 344.6H78.5001V464.4H130.3C143.567 464.4 150.2 457.234 150.2 442.9Z" fill="#102C50"/>
<path d="M133.5 542.9H50.4C17.1 542.9 6.4 525.9 3 515.5C0.9 509.4 0 501.9 0 491.9V316.5C0 310.3 0.200006 305.8 0.600006 302.4C1.30001 297.4 3.10001 292.2 6.10001 286.6C13.1 273.1 28.2 266.1 50.7 266.1H130.3C156 266.1 177.8 275.2 195.2 293.2C213 311 222.1 332.9 222.1 358.2C222.1 371.2 219.5 383.5 214.3 394.9C223.9 410.5 228.8 427.6 228.8 446.1C228.8 446.233 228.8 446.367 228.8 446.5C228.2 473.5 218.8 496.5 200.6 514.9C182.3 533.5 159.7 542.9 133.5 542.9ZM45.4 497.4C46.6 497.6 48.3 497.7 50.4 497.7H133.5C147.5 497.7 158.6 493 168.4 483.1C178.2 473.1 183.2 460.9 183.5 445.8C183.5 433 179.1 421.6 170.2 411C163.6 403.2 163.1 392 168.9 383.6C174.3 375.8 176.9 367.5 176.9 358.2C176.9 345 172.5 334.4 163 324.9C153.9 315.6 143.6 311.4 130.3 311.4H50.7C48.4 311.4 46.6 311.5 45.3 311.6C45.3 312.8 45.2 314.4 45.2 316.5V491.9C45.2 494.2 45.3 496 45.4 497.4ZM46.1 307.7C46.0333 307.767 46 307.8 46 307.8C46.0667 307.8 46.1 307.767 46.1 307.7ZM130.3 487H78.5C66 487 55.8 476.9 55.8 464.4V344.6C55.8 332.1 66 322 78.5 322H122.7C133.9 322 142.9 324.1 150 328.4C160.3 334.7 166.2 345.8 166.2 358.9C166.2 366.4 165.6 371.8 164.4 376.2C164.2 376.933 163.967 377.633 163.7 378.3C160.8 386.1 152.3 399 128.8 399.5C137.6 399.8 144.9 401.1 151 403.6C151.333 403.733 151.7 403.867 152.1 404C160.2 407.8 166.2 414.2 169.5 422.6C171.7 428.3 172.8 434.9 172.8 442.9C172.8 469.7 156.1 487 130.3 487ZM101.1 441.8H105.7C104.1 441.2 102.567 440.567 101.1 439.9V441.8Z" fill="#102C50"/>
<path d="M601.4 403.4L664.9 473.2C672.033 481.2 675.6 487.933 675.6 493.4C675.6 498.933 671.533 505.367 663.4 512.7C655.333 520.1 648.5 523.8 642.9 523.8C637.3 523.8 630.833 519.567 623.5 511.1L563.5 442.3L503.4 511.1C495.867 519.567 489.4 523.8 484 523.8C478.6 523.8 471.767 520.067 463.5 512.6C455.167 505.133 451 498.733 451 493.4C451 488.2 454.667 481.467 462 473.2L525.5 403.4L462 333.6C454.667 325.8 451 319.167 451 313.7C451 308.233 455.1 301.767 463.3 294.3C471.5 286.767 478.4 283 484 283C489.6 283 496.067 287.233 503.4 295.7L563.5 364.6L623.5 295.7C631.1 287.233 637.567 283 642.9 283C648.3 283 655.1 286.7 663.3 294.1C671.5 301.5 675.6 308.033 675.6 313.7C675.6 319.367 672.033 326 664.9 333.6L601.4 403.4Z" fill="#102C50"/>
<path d="M642.9 546.4C630.4 546.4 618.4 539.7 606.4 526L563.5 476.7L520.5 526C508.1 539.8 496.2 546.4 484 546.4C472.6 546.4 461.3 541 448.3 529.4C434.9 517.3 428.4 505.6 428.4 493.4C428.4 482.1 433.7 470.9 445.2 458.1L495 403.4L445.4 349C433.9 336.8 428.4 325.2 428.4 313.7C428.4 301.4 434.8 289.6 448.1 277.5C474.5 253.5 497.4 254.5 520.4 280.8L563.5 330.1L606.4 280.8C618.9 267 630.7 260.4 642.9 260.4C654.3 260.4 665.6 265.8 678.4 277.3C691.7 289.2 698.2 301.2 698.2 313.7C698.2 325.5 692.7 337.1 681.3 349.1L632 403.4L681.6 458C692.8 470.6 698.2 482.1 698.2 493.4C698.2 505.7 691.8 517.5 678.7 529.5C666.1 540.9 654.4 546.4 642.9 546.4ZM563.5 419.6C570 419.6 576.2 422.5 580.5 427.4L640.5 496.3C641.8 497.7 642.9 498.8 643.8 499.6C644.9 498.8 646.4 497.6 648.2 496C649.7 494.7 650.7 493.6 651.5 492.7C650.7 491.6 649.6 490.1 648 488.3L584.6 418.6C576.8 410 576.8 396.8 584.6 388.2L648.1 318.4C649.7 316.7 650.8 315.3 651.6 314.3C650.8 313.4 649.7 312.3 648.2 310.9C646.4 309.3 644.9 308.1 643.7 307.3C642.8 308.2 641.7 309.3 640.3 310.8L580.5 379.4C576.2 384.3 570 387.2 563.5 387.2C556.9 387.2 550.7 384.3 546.4 379.4L486.4 310.5C485.1 309.1 484 308 483.2 307.2C482 308 480.4 309.3 478.5 311C477.1 312.3 476 313.4 475.2 314.3C476 315.3 477 316.5 478.5 318C478.567 318.133 478.667 318.267 478.8 318.4L542.3 388.2C550.1 396.8 550.1 410 542.3 418.6L478.8 488.5C477.3 490.1 476.2 491.5 475.4 492.6C476.2 493.5 477.2 494.5 478.6 495.7C480.5 497.4 482 498.6 483.2 499.5C484.1 498.6 485.2 497.5 486.6 496L546.4 427.4C550.7 422.5 556.9 419.6 563.5 419.6Z" fill="#102C50"/>
<path d="M416.5 320C393.567 297.467 366.533 286.2 335.4 286.2C320.867 286.2 306.733 289.134 293 295C279.333 300.934 267.233 309.067 256.7 319.4C246.167 329.734 237.733 342.534 231.4 357.8C225.067 373.067 221.9 389.434 221.9 406.9C221.9 438.9 233.133 466.5 255.6 489.7C278 512.834 305.233 524.4 337.3 524.4C369.3 524.4 396.233 512.667 418.1 489.2C440.033 465.734 451 437.3 451 403.9C451 370.5 439.5 342.534 416.5 320ZM363.8 348.7C363.8 342.5 368.8 337.4 375.1 337.4H383.8C390 337.4 395.1 342.5 395.1 348.7V357.5C395.1 363.7 390 368.8 383.8 368.8H375.1C368.8 368.8 363.8 363.7 363.8 357.5V348.7ZM278 348.7C278 342.4 283.1 337.3 289.3 337.3H298.1C304.3 337.3 309.4 342.4 309.4 348.7V357.4C309.4 363.6 304.3 368.7 298.1 368.7H289.3C283.1 368.7 278 363.6 278 357.4V348.7ZM395.9 428.6C395.9 458.2 372 482.1 342.4 482.1H330.5C301 482.1 277 458.2 277 428.6V395H395.9V428.6Z" fill="#102C50"/>
<path d="M337.3 547C299 547 266.1 533 239.3 505.4C212.8 478 199.3 444.8 199.3 406.9C199.3 386.5 203.1 367.1 210.5 349.1C218 331.1 228.2 315.6 240.8 303.2C253.3 291 267.9 281.2 284.1 274.3C300.6 267.2 317.8 263.6 335.4 263.6C372.5 263.6 405.2 277.1 432.4 303.9C459.7 330.7 473.6 364.4 473.6 403.9C473.6 443 460.5 476.9 434.7 504.6C408.4 532.8 375.6 547 337.3 547ZM410.8 378C415.5 382.1 418.5 388.2 418.5 395V428.7C418.5 441.1 415.5 452.9 410.2 463.3C422.4 446.3 428.4 426.7 428.4 403.9C428.4 386.9 424.9 371.9 417.7 358.6C417.5 365.9 414.9 372.6 410.8 378ZM255.5 359.5C254.366 361.767 253.3 364.067 252.3 366.4C247.2 378.9 244.6 392.5 244.6 406.9C244.6 428.2 250.5 446.7 262.7 463.1C257.4 452.8 254.4 441.1 254.4 428.7V395C254.4 388.2 257.4 382 262.3 377.9C258.3 372.7 255.9 366.4 255.5 359.5ZM299.6 417.7V428.7C299.6 445.7 313.5 459.5 330.5 459.5H342.4C359.4 459.5 373.3 445.7 373.3 428.7V417.7H299.6ZM328.5 372.4H344.5C342.3 367.9 341.1 362.8 341.1 357.5V348.7C341.1 331.9 353.4 317.9 369.5 315.2C358.9 310.9 347.6 308.8 335.3 308.8C324.3 308.8 313.8 310.9 303.4 315.2C319.5 317.8 331.9 331.8 331.9 348.7V357.5C331.9 362.8 330.7 367.9 328.5 372.4ZM373.2 353.1C374.3 355.8 376.5 358 379.2 359.2C382 358 384.2 355.8 385.3 353.1C384.2 350.3 382 348.2 379.2 347C376.5 348.2 374.3 350.3 373.2 353.1ZM287.4 353.1C288.6 355.8 290.8 358 293.5 359.2C296.3 358 298.4 355.8 299.6 353.1C298.4 350.3 296.3 348.2 293.5 347C290.8 348.2 288.6 350.3 287.4 353.1Z" fill="#102C50"/>
<path d="M201 216.4H260.2C263.133 216.4 265.367 216.5 266.9 216.7C268.367 216.9 270.033 217.5 271.9 218.5C275.367 220.3 277.1 225.3 277.1 233.5C277.1 242.5 274.733 247.767 270 249.3C267.867 250.034 264.533 250.4 260 250.4H183.9C174.9 250.467 169.633 248.034 168.1 243.1C167.3 241.1 166.9 237.834 166.9 233.3V54.7002C166.9 48.1002 168.133 43.6335 170.6 41.3002C173 38.9002 177.6 37.7002 184.4 37.7002H260.2C263.133 37.7002 265.367 37.8002 266.9 38.0002C268.367 38.2002 270.033 38.8002 271.9 39.8002C275.367 41.6002 277.1 46.6002 277.1 54.8002C277.1 63.8002 274.733 69.0669 270 70.6002C267.867 71.4002 264.533 71.8002 260 71.8002H201V91.2002H239.1C242.033 91.2002 244.233 91.3002 245.7 91.5002C247.167 91.7002 248.867 92.3002 250.8 93.3002C254.267 95.1002 256 100.1 256 108.3C256 117.3 253.567 122.567 248.7 124.1C246.5 124.834 243.167 125.2 238.7 125.2H201V216.4Z" fill="#102C50"/>
<path d="M260 273.1H183.9C157.5 273.1 149.2 257.8 146.7 250.6C145.1 246 144.3 240.5 144.3 233.3V54.7001C144.3 41.6001 147.7 32.0001 154.8 25.1001C161.7 18.4001 171.4 15.1001 184.4 15.1001H260.2C264.2 15.1001 267.3 15.3001 269.8 15.6001C274 16.1001 278.2 17.5001 282.6 19.9001C290.3 23.9001 299.8 33.3001 299.8 54.8001C299.8 81.4001 284.3 89.7001 277.3 92.0001C277.033 92.1334 276.766 92.2334 276.5 92.3001C277.8 96.7001 278.6 102 278.6 108.3C278.6 134.9 263 143.2 255.9 145.5C251.2 147.1 245.7 147.9 238.7 147.9H223.6V193.8H260.2C264.2 193.8 267.3 193.9 269.8 194.3C274 194.8 278.2 196.2 282.6 198.5C290.3 202.6 299.8 212 299.8 233.5C299.8 260.1 284.3 268.4 277.3 270.7C272.6 272.3 267.1 273.1 260 273.1Z" fill="#102C50"/>
<path d="M451.8 216.4H511.1C514.034 216.4 516.234 216.5 517.7 216.7C519.167 216.9 520.867 217.5 522.8 218.5C526.267 220.3 528 225.3 528 233.5C528 242.5 525.634 247.767 520.9 249.3C518.7 250.034 515.367 250.4 510.9 250.4H434.7C425.7 250.467 420.434 248.034 418.9 243.1C418.167 241.1 417.8 237.834 417.8 233.3V54.7002C417.8 48.1002 419 43.6335 421.4 41.3002C423.867 38.9002 428.5 37.7002 435.3 37.7002H511.1C514.034 37.7002 516.234 37.8002 517.7 38.0002C519.167 38.2002 520.867 38.8002 522.8 39.8002C526.267 41.6002 528 46.6002 528 54.8002C528 63.8002 525.634 69.0669 520.9 70.6002C518.7 71.4002 515.367 71.8002 510.9 71.8002H451.8V91.2002H489.9C492.834 91.2002 495.034 91.3002 496.5 91.5002C497.967 91.7002 499.667 92.3002 501.6 93.3002C505.067 95.1002 506.8 100.1 506.8 108.3C506.8 117.3 504.367 122.567 499.5 124.1C497.3 124.834 493.967 125.2 489.5 125.2H451.8V216.4Z" fill="#102C50"/>
<path d="M510.9 273.1H434.7C408.4 273.1 400 257.8 397.6 250.6C395.9 246 395.2 240.5 395.2 233.3V54.7001C395.2 41.6001 398.6 32.0001 405.6 25.1001C412.5 18.4001 422.2 15.1001 435.3 15.1001H511.1C515.1 15.1001 518.1 15.3001 520.6 15.6001C524.9 16.1001 529 17.5001 533.4 19.9001C541.2 23.9001 550.6 33.3001 550.6 54.8001C550.6 81.4001 535.2 89.7001 528.2 92.0001C527.867 92.1334 527.567 92.2334 527.3 92.3001C528.6 96.7001 529.5 102 529.5 108.3C529.5 134.9 513.9 143.2 506.7 145.5C502.1 147.1 496.6 147.9 489.5 147.9H474.4V193.8H511.1C515.1 193.8 518.1 193.9 520.6 194.3C524.9 194.8 529 196.2 533.4 198.5C541.2 202.6 550.6 212 550.6 233.5C550.6 260.1 535.2 268.4 528.2 270.7C523.5 272.3 518 273.1 510.9 273.1Z" fill="#102C50"/>
<path d="M405.2 158C405.2 148.3 397.3 140.4 387.5 140.4H358C348.3 140.4 340.4 148.3 340.4 158V161.1C340.4 170.9 348.3 178.8 358 178.8H366.7V211.2H328.1V78.5001H386C395.7 78.5001 403.6 70.6001 403.6 60.9001V57.8001C403.6 48.0001 395.7 40.1001 386 40.1001H313.8C311.5 40.1001 309.2 40.6001 307.1 41.5001C297.5 41.6001 289.7 49.4001 289.7 59.1001V231.9C289.7 241.6 297.6 249.5 307.4 249.5H310.5C310.967 249.5 311.434 249.467 311.9 249.4C312.567 249.467 313.2 249.5 313.8 249.5H386C389.9 249.5 393.6 248.2 396.5 246C401.6 242.9 405.1 237.3 405.1 230.9V163C405.167 162.4 405.2 161.767 405.2 161.1V158Z" fill="#102C50"/>
<path d="M386 272.2H313.8C313.133 272.2 312.433 272.167 311.7 272.1C311.3 272.1 310.9 272.1 310.5 272.1H307.4C285.2 272.1 267.1 254.1 267.1 231.9V59.1C267.1 38.7 282.6 21.5 302.5 19.1C306.167 18.0333 309.933 17.5 313.8 17.5H386C408.2 17.5 426.2 35.6 426.2 57.8V60.9C426.2 83.1 408.2 101.1 386 101.1H350.7V118.4C353.1 118 355.533 117.8 358 117.8H387.5C409.8 117.8 427.8 135.8 427.8 158.1V161.1C427.8 162.033 427.767 162.967 427.7 163.9V230.9C427.7 244.6 420.6 257.5 409.1 264.8C402.3 269.6 394.3 272.2 386 272.2Z" fill="#102C50"/>
<path d="M647.7 41.4001H644.6C634.9 41.4001 627 49.3002 627 59.1002V151.3L579.5 52.8001C577.8 49.1001 574.9 46.3002 571.5 44.7002C568.6 42.6002 565.1 41.4001 561.3 41.4001H558.2C548.5 41.4001 540.6 49.3002 540.6 59.1002V231.9C540.6 241.6 548.5 249.5 558.2 249.5H561.3C571 249.5 579 241.6 579 231.9V140.1L626 237.8C627.7 241.4 630.6 244.2 633.9 245.9C636.9 248.1 640.6 249.5 644.6 249.5H647.7C657.4 249.5 665.3 241.6 665.3 231.9V59.1002C665.3 49.3002 657.4 41.4001 647.7 41.4001Z" fill="#102C50"/>
<path d="M647.7 272.1H644.6C636.4 272.1 628.6 269.7 621.9 265.1C614.8 261 609.2 255 605.6 247.6L601.1 238.2C598 257.4 581.3 272.1 561.3 272.1H558.2C536 272.1 517.9 254.1 517.9 231.9V59.1001C517.9 36.9001 536 18.8 558.2 18.8H561.3C569.1 18.8 576.6 21.0001 583.1 25.2001C590.4 29.2001 596.3 35.5001 599.9 43.0001L604.8 53.1001C607.7 33.7001 624.4 18.8 644.6 18.8H647.7C669.9 18.8 688 36.9001 688 59.1001V231.9C688 254.1 669.9 272.1 647.7 272.1ZM619.8 172.8L642.7 220.4V167.6C639.8 170.4 636.1 172.5 632 173.4C627.8 174.3 623.6 174.1 619.8 172.8ZM563.2 71.1001V123.9C566.1 121 569.8 119 573.9 118C578.1 117.1 582.3 117.4 586.1 118.6L563.2 71.1001Z" fill="#102C50"/>
<path d="M143.2 54.8002C135.2 46.0002 123.8 41.0002 111.9 41.0002H52.9001C51.9001 41.0002 50.9334 41.1002 50.0001 41.3002C40.9001 41.3002 33.6001 48.6003 33.6001 57.6003V233C33.6001 242 40.9001 249.3 50.0001 249.3H51.4001C52.4001 249.5 53.4001 249.6 54.4001 249.6H101C123 249.6 141.3 232.8 143.3 210.9L154.2 87.2003C155.2 75.4003 151.2 63.6002 143.2 54.8002ZM119.3 84.4002L108.4 208.1C107.9 213.8 103.2 218.1 97.5001 218.1H66.9001V72.5002H108.4C112.6 72.5002 115.3 74.7002 116.5 76.0002C117.7 77.4002 119.7 80.2002 119.3 84.4002Z" fill="#102C50"/>
<path d="M101 272.2H54.4C52.8667 272.2 51.3 272.1 49.7 271.9C28.3 271.8 11 254.4 11 233V57.6002C11 36.9002 27.3 19.9002 47.8 18.7002C49.5333 18.5002 51.2333 18.4001 52.9 18.4001H111.9C130.1 18.4001 147.6 26.1002 159.9 39.5002C172.2 52.9002 178.3 71.0002 176.7 89.2002L165.8 212.9C162.8 246.7 135 272.2 101 272.2ZM89.5 95.1002V165.1L95.7 95.1002H89.5ZM96.7 82.4001C96.7 82.4668 96.7 82.5002 96.7 82.5002V82.4001Z" fill="#102C50"/>
<path d="M187.5 381.3C199.9 396.033 206.1 412.567 206.1 430.9C205.7 451.967 198.5 469.6 184.5 483.8C170.5 498.067 153.5 505.2 133.5 505.2H50.4001C35.6668 505.2 27.0334 501.2 24.5001 493.2C23.2334 489.6 22.6001 484.1 22.6001 476.7V301.4C22.6001 296.333 22.7668 292.633 23.1001 290.3C23.3668 288.033 24.3668 285.3 26.1001 282.1C29.0334 276.433 37.2334 273.6 50.7001 273.6H130.3C149.7 273.6 165.933 280.333 179 293.8C192.667 307.467 199.5 323.9 199.5 343.1C199.5 356.967 195.5 369.7 187.5 381.3ZM150.2 427.8C150.2 422.733 149.633 418.733 148.5 415.8C147.3 412.8 145.333 410.667 142.6 409.4C138.4 407.733 132.5 406.9 124.9 406.9C117.367 406.9 111.7 405.433 107.9 402.5C104.1 399.567 102.2 393.5 102.2 384.3C102.2 375.167 104.133 369.133 108 366.2C111.933 363.2 118.433 361.7 127.5 361.7C135.9 361.7 140.933 359.5 142.6 355.1C143.267 352.767 143.6 348.967 143.6 343.7C143.6 338.433 141.867 334.767 138.4 332.7C134.933 330.567 129.7 329.5 122.7 329.5H78.5001V449.2H130.3C143.567 449.2 150.2 442.067 150.2 427.8Z" fill="#3670B6"/>
<path d="M133.5 527.8H50.4C17.1 527.8 6.4 510.8 3 500.3C0.9 494.2 0 486.7 0 476.7V301.4C0 295.2 0.200006 290.7 0.600006 287.3C1.30001 282.2 3.10001 277.1 6.10001 271.5C13.1 257.9 28.2 251 50.7 251H130.3C156 251 177.8 260.1 195.2 278.1C213 295.8 222.1 317.8 222.1 343.1C222.1 356 219.5 368.3 214.3 379.8C223.9 395.4 228.8 412.5 228.8 430.9C228.8 431.033 228.8 431.2 228.8 431.4C228.2 458.3 218.8 481.3 200.6 499.7C182.3 518.3 159.7 527.8 133.5 527.8ZM45.4 482.3C46.6 482.4 48.3 482.5 50.4 482.5H133.5C147.5 482.5 158.6 477.9 168.4 468C178.2 458 183.2 445.8 183.5 430.7C183.5 417.9 179.1 406.5 170.2 395.9C163.6 388.1 163.1 376.9 168.9 368.5C174.3 360.7 176.9 352.4 176.9 343.1C176.9 329.9 172.5 319.3 163 309.8C153.9 300.5 143.6 296.2 130.3 296.2H50.7C48.4 296.2 46.6 296.3 45.3 296.5C45.3 297.7 45.2 299.3 45.2 301.4V476.7C45.2 479.1 45.3 480.9 45.4 482.3ZM46.1 292.5C46.0333 292.567 46 292.633 46 292.7C46.0667 292.633 46.1 292.567 46.1 292.5ZM130.3 471.9H78.5C66 471.9 55.8 461.7 55.8 449.2V329.5C55.8 317 66 306.9 78.5 306.9H122.7C133.9 306.9 142.9 309 150 313.3C160.3 319.5 166.2 330.6 166.2 343.7C166.2 351.3 165.6 356.6 164.4 361.1C164.2 361.767 163.967 362.467 163.7 363.2C160.8 370.9 152.3 383.9 128.8 384.3C137.6 384.6 144.9 386 151 388.4C151.333 388.533 151.7 388.7 152.1 388.9C160.2 392.6 166.2 399.1 169.5 407.5C171.7 413.2 172.8 419.8 172.8 427.8C172.8 454.6 156.1 471.9 130.3 471.9ZM101.1 426.6H105.7C104.1 426.067 102.567 425.433 101.1 424.7V426.6Z" fill="#3670B6"/>
<path d="M601.4 388.3L664.9 458.1C672.033 466.1 675.6 472.833 675.6 478.3C675.6 483.767 671.533 490.2 663.4 497.6C655.333 504.933 648.5 508.6 642.9 508.6C637.3 508.6 630.833 504.4 623.5 496L563.5 427.1L503.4 496C495.867 504.4 489.4 508.6 484 508.6C478.6 508.6 471.767 504.867 463.5 497.4C455.167 489.933 451 483.567 451 478.3C451 473.033 454.667 466.3 462 458.1L525.5 388.3L462 318.5C454.667 310.7 451 304.033 451 298.5C451 293.033 455.1 286.567 463.3 279.1C471.5 271.633 478.4 267.9 484 267.9C489.6 267.9 496.067 272.1 503.4 280.5L563.5 349.4L623.5 280.5C631.1 272.1 637.567 267.9 642.9 267.9C648.3 267.9 655.1 271.6 663.3 279C671.5 286.333 675.6 292.833 675.6 298.5C675.6 304.233 672.033 310.9 664.9 318.5L601.4 388.3Z" fill="#3670B6"/>
<path d="M642.9 531.3C630.4 531.3 618.4 524.6 606.4 510.9L563.5 461.6L520.5 510.9C508.1 524.7 496.2 531.3 484 531.3C472.6 531.3 461.2 525.9 448.3 514.2C434.9 502.2 428.4 490.4 428.4 478.3C428.4 467 433.7 455.8 445.2 443L495 388.3L445.3 333.7C434 321.7 428.4 310.1 428.4 298.5C428.4 286.3 434.8 274.5 448.1 262.4C474.5 238.3 497.4 239.3 520.5 265.6L563.5 315L606.4 265.7C618.9 251.9 630.7 245.3 642.9 245.3C654.3 245.3 665.6 250.6 678.4 262.1C691.7 274.1 698.2 286 698.2 298.5C698.2 310.3 692.7 321.9 681.3 334L632 388.3L681.6 442.9C692.8 455.4 698.2 467 698.2 478.3C698.2 490.6 691.8 502.4 678.7 514.3C666.1 525.7 654.4 531.3 642.9 531.3ZM563.5 404.5C570 404.5 576.2 407.3 580.5 412.3L640.5 481.1C641.8 482.6 642.9 483.7 643.8 484.5C644.9 483.7 646.4 482.5 648.2 480.8C649.7 479.5 650.7 478.4 651.5 477.6C650.7 476.4 649.6 475 648 473.2L584.6 403.5C576.8 394.9 576.8 381.7 584.6 373L648.1 303.2C649.7 301.5 650.8 300.2 651.6 299.2C650.8 298.3 649.7 297.2 648.2 295.8C646.4 294.2 644.9 293 643.7 292.2C642.8 293 641.7 294.2 640.3 295.7L580.5 364.3C576.2 369.2 570 372 563.5 372C556.9 372 550.7 369.2 546.4 364.3L486.4 295.4C485.1 294 484 292.9 483.2 292.1C482 292.9 480.4 294.1 478.5 295.9C477.1 297.2 476 298.2 475.2 299.1C476 300.1 477 301.4 478.5 302.9L542.3 373C550.1 381.7 550.1 394.9 542.3 403.5L478.8 473.3C477.3 475 476.2 476.4 475.4 477.5C476.2 478.367 477.267 479.4 478.6 480.6C480.5 482.3 482 483.5 483.2 484.4C484.1 483.5 485.3 482.4 486.6 480.9L546.4 412.3C550.7 407.3 556.9 404.5 563.5 404.5Z" fill="#3670B6"/>
<path d="M416.5 304.9C393.567 282.367 366.533 271.1 335.4 271.1C320.867 271.1 306.733 274.033 293 279.9C279.333 285.833 267.233 293.933 256.7 304.2C246.167 314.533 237.733 327.333 231.4 342.6C225.067 357.867 221.9 374.233 221.9 391.7C221.9 423.767 233.133 451.367 255.6 474.5C278 497.7 305.233 509.3 337.3 509.3C369.3 509.3 396.233 497.533 418.1 474C440.033 450.533 451 422.1 451 388.7C451 355.367 439.5 327.433 416.5 304.9ZM363.8 333.6C363.8 327.3 368.8 322.3 375.1 322.3H383.8C390 322.3 395.1 327.3 395.1 333.6V342.3C395.1 348.6 390 353.6 383.8 353.6H375.1C368.8 353.6 363.8 348.6 363.8 342.3V333.6ZM278 333.6C278 327.4 283.1 322.3 289.3 322.3H298.1C304.3 322.3 309.4 327.4 309.4 333.6V342.3C309.4 348.6 304.3 353.7 298.1 353.7H289.3C283.1 353.7 278 348.6 278 342.3V333.6ZM395.9 413.6C395.9 443.1 372 467 342.4 467H330.5C301 467 277 443.1 277 413.6V380H395.9V413.6Z" fill="#3670B6"/>
<path d="M337.3 531.9C299 531.9 266.1 517.9 239.3 490.3C212.8 462.8 199.3 429.7 199.3 391.7C199.3 371.4 203.1 351.9 210.5 334C218 315.9 228.2 300.5 240.9 288.1C253.3 275.8 267.9 266.1 284.1 259.1C300.5 252 317.8 248.4 335.4 248.4C372.5 248.4 405.2 262 432.4 288.7C459.7 315.6 473.6 349.2 473.6 388.7C473.6 427.9 460.5 461.8 434.7 489.5C408.4 517.6 375.6 531.9 337.3 531.9ZM410.8 362.9C415.5 367 418.5 373.1 418.5 379.9V413.5C418.5 426 415.5 437.8 410.2 448.1C422.4 431.1 428.4 411.6 428.4 388.7C428.4 371.8 424.9 356.8 417.7 343.5C417.5 350.7 414.9 357.4 410.8 362.9ZM255.5 344.4C254.366 346.6 253.3 348.9 252.3 351.3C247.2 363.7 244.6 377.3 244.6 391.7C244.6 413.1 250.5 431.6 262.7 448C257.4 437.6 254.4 425.9 254.4 413.5V379.9C254.4 373 257.4 366.9 262.3 362.8C258.3 357.6 255.9 351.2 255.5 344.4ZM299.6 402.5V413.5C299.6 430.5 313.5 444.4 330.5 444.4H342.4C359.4 444.4 373.3 430.5 373.3 413.5V402.5H299.6ZM328.5 357.3H344.5C342.3 352.8 341.1 347.7 341.1 342.3V333.6C341.1 316.7 353.4 302.7 369.5 300.1C358.9 295.8 347.6 293.7 335.3 293.7C324.3 293.7 313.8 295.8 303.4 300.1C319.5 302.7 331.9 316.7 331.9 333.6V342.3C331.9 347.7 330.7 352.8 328.5 357.3Z" fill="#3670B6"/>
<path d="M201 201.3H260.2C263.133 201.3 265.367 201.4 266.9 201.6C268.367 201.733 270.033 202.333 271.9 203.4C275.367 205.2 277.1 210.2 277.1 218.4C277.1 227.333 274.733 232.6 270 234.2C267.867 234.933 264.533 235.3 260 235.3H183.9C174.9 235.3 169.633 232.867 168.1 228C167.3 225.933 166.9 222.667 166.9 218.2V39.5001C166.9 32.9668 168.133 28.5001 170.6 26.1001C173 23.7668 177.6 22.6001 184.4 22.6001H260.2C263.133 22.6001 265.367 22.7001 266.9 22.9001C268.367 23.1001 270.033 23.7001 271.9 24.7001C275.367 26.5001 277.1 31.5001 277.1 39.7001C277.1 48.7001 274.733 53.9668 270 55.5001C267.867 56.2334 264.533 56.6001 260 56.6001H201V76.1001H239.1C242.033 76.1001 244.233 76.1667 245.7 76.3001C247.167 76.5001 248.867 77.1334 250.8 78.2001C254.267 80.0001 256 85.0001 256 93.2001C256 102.133 253.567 107.367 248.7 108.9C246.5 109.7 243.167 110.1 238.7 110.1H201V201.3Z" fill="#3670B6"/>
<path d="M260 257.9H183.9C157.5 257.9 149.2 242.7 146.7 235.4C145.1 230.8 144.3 225.3 144.3 218.2V39.5C144.3 26.5 147.7 16.8 154.8 9.89999C161.7 3.19999 171.4 0 184.4 0H260.2C264.2 0 267.3 0.0999939 269.8 0.399994C274 0.999994 278.2 2.40001 282.6 4.70001C290.3 8.70001 299.8 18.2 299.8 39.7C299.8 66.3 284.3 74.5 277.3 76.9C277.033 76.9667 276.766 77.0667 276.5 77.2C277.8 81.6 278.6 86.9 278.6 93.2C278.6 119.8 263 128 255.9 130.4C251.2 132 245.7 132.7 238.7 132.7H223.6V178.6H260.2C264.2 178.6 267.3 178.8 269.8 179.1C274 179.7 278.2 181.1 282.6 183.4C290.3 187.4 299.8 196.9 299.8 218.4C299.8 245 284.3 253.2 277.3 255.6C272.6 257.2 267.1 257.9 260 257.9Z" fill="#3670B6"/>
<path d="M451.8 201.3H511.1C514.034 201.3 516.234 201.4 517.7 201.6C519.167 201.733 520.867 202.333 522.8 203.4C526.267 205.2 528 210.2 528 218.4C528 227.333 525.634 232.6 520.9 234.2C518.7 234.933 515.367 235.3 510.9 235.3H434.7C425.7 235.3 420.434 232.867 418.9 228C418.167 225.933 417.8 222.667 417.8 218.2V39.5001C417.8 32.9668 419 28.5001 421.4 26.1001C423.867 23.7668 428.5 22.6001 435.3 22.6001H511.1C514.034 22.6001 516.234 22.7001 517.7 22.9001C519.167 23.1001 520.867 23.7001 522.8 24.7001C526.267 26.5001 528 31.5001 528 39.7001C528 48.7001 525.634 53.9668 520.9 55.5001C518.7 56.2334 515.367 56.6001 510.9 56.6001H451.8V76.1001H489.9C492.834 76.1001 495.034 76.1667 496.5 76.3001C497.967 76.5001 499.667 77.1334 501.6 78.2001C505.067 80.0001 506.8 85.0001 506.8 93.2001C506.8 102.133 504.367 107.367 499.5 108.9C497.3 109.7 493.967 110.1 489.5 110.1H451.8V201.3Z" fill="#3670B6"/>
<path d="M510.9 257.9H434.7C408.4 257.9 400 242.7 397.6 235.4C395.9 230.8 395.2 225.3 395.2 218.2V39.5C395.2 26.5 398.6 16.8 405.6 9.89999C412.5 3.19999 422.2 0 435.3 0H511.1C515.1 0 518.1 0.0999939 520.6 0.399994C524.9 0.999994 529 2.40001 533.4 4.70001C541.2 8.70001 550.6 18.2 550.6 39.7C550.6 66.3 535.2 74.5 528.2 76.9C527.867 76.9667 527.567 77.0667 527.3 77.2C528.6 81.6 529.5 86.9 529.5 93.2C529.5 119.8 513.9 128 506.7 130.4C502.1 132 496.6 132.7 489.5 132.7H474.4V178.6H511.1C515.1 178.6 518.1 178.8 520.6 179.1C524.9 179.7 529 181.1 533.4 183.4C541.2 187.4 550.6 196.9 550.6 218.4C550.6 245 535.2 253.2 528.2 255.6C523.5 257.2 518 257.9 510.9 257.9Z" fill="#3670B6"/>
<path d="M405.2 142.9C405.2 133.2 397.3 125.3 387.5 125.3H358C348.3 125.3 340.4 133.2 340.4 142.9V146C340.4 155.7 348.3 163.6 358 163.6H366.7V196H328.1V63.4H386C395.7 63.4 403.6 55.5 403.6 45.7V42.6C403.6 32.9 395.7 25 386 25H313.8C311.5 25 309.2 25.5 307.1 26.3C297.5 26.5 289.7 34.3 289.7 43.9V216.7C289.7 226.5 297.6 234.4 307.4 234.4H310.5C310.967 234.4 311.434 234.367 311.9 234.3C312.567 234.367 313.2 234.4 313.8 234.4H386C389.9 234.4 393.6 233.1 396.5 230.9C401.6 227.8 405.1 222.2 405.1 215.8V147.8C405.167 147.2 405.2 146.6 405.2 146V142.9Z" fill="#3670B6"/>
<path d="M386 257H313.8C313.133 257 312.433 257 311.7 257C311.3 257 310.9 257 310.5 257H307.4C285.2 257 267.1 238.9 267.1 216.7V43.8999C267.1 23.4999 282.6 6.39991 302.5 3.99991C306.167 2.93324 309.933 2.3999 313.8 2.3999H386C408.2 2.3999 426.2 20.3999 426.2 42.5999V45.6999C426.2 67.8999 408.2 85.9999 386 85.9999H350.7V103.3C353.1 102.833 355.533 102.6 358 102.6H387.5C409.8 102.6 427.8 120.7 427.8 142.9V146C427.8 146.933 427.767 147.833 427.7 148.7V215.8C427.7 229.4 420.6 242.3 409.1 249.7C402.3 254.5 394.3 257 386 257Z" fill="#3670B6"/>
<path d="M647.7 26.2998H644.6C634.9 26.2998 627 34.1998 627 43.8998V136.2L579.5 37.6998C577.8 33.9998 574.9 31.1998 571.5 29.4998C568.6 27.4998 565.1 26.2998 561.3 26.2998H558.2C548.5 26.2998 540.6 34.1998 540.6 43.8998V216.7C540.6 226.5 548.5 234.4 558.2 234.4H561.3C571 234.4 579 226.5 579 216.7V125L626 222.7C627.7 226.3 630.6 229.1 633.9 230.7C636.9 233 640.6 234.4 644.6 234.4H647.7C657.4 234.4 665.3 226.5 665.3 216.7V43.8998C665.3 34.1998 657.4 26.2998 647.7 26.2998Z" fill="#3670B6"/>
<path d="M647.7 257H644.6C636.4 257 628.6 254.6 621.9 250C614.8 245.9 609.2 239.9 605.6 232.5L601.1 223.1C598 242.3 581.3 257 561.3 257H558.2C536 257 517.9 238.9 517.9 216.7V43.8999C517.9 21.6999 536 3.69995 558.2 3.69995H561.3C569.1 3.69995 576.6 5.89995 583.1 10.0999C590.4 14.0999 596.3 20.3999 599.9 27.8999L604.8 37.8999C607.7 18.5999 624.4 3.69995 644.6 3.69995H647.7C669.9 3.69995 688 21.6999 688 43.8999V216.7C688 238.9 669.9 257 647.7 257ZM619.8 157.7L642.7 205.2V152.4C639.8 155.3 636.1 157.3 632 158.3C627.8 159.2 623.6 158.9 619.8 157.7ZM563.2 55.8999V108.7C566.1 105.9 569.8 103.8 573.9 102.9C578.1 102 582.3 102.2 586.1 103.5L563.2 55.8999Z" fill="#3670B6"/>
<path d="M143.2 39.6999C135.2 30.8999 123.8 25.8999 111.9 25.8999H52.9001C51.9001 25.8999 50.9334 25.9999 50.0001 26.1999C40.9001 26.1999 33.6001 33.4999 33.6001 42.4999V217.9C33.6001 226.9 40.9001 234.2 50.0001 234.2H51.4001C52.4001 234.333 53.4001 234.433 54.4001 234.5H101C123 234.5 141.3 217.7 143.3 195.7L154.2 72.0999C155.2 60.1999 151.2 48.3999 143.2 39.6999ZM119.3 69.2999L108.4 193C107.9 198.6 103.2 203 97.5001 203H66.9001V57.2999H108.4C112.6 57.2999 115.3 59.5999 116.5 60.8999C117.7 62.1999 119.7 65.0999 119.3 69.2999Z" fill="#3670B6"/>
<path d="M101 257.1H54.4C52.8667 257.1 51.3 257 49.7 256.8C28.3 256.7 11 239.2 11 217.9V42.4999C11 21.6999 27.3 4.69995 47.8 3.59995C49.5333 3.33328 51.2333 3.19995 52.9 3.19995H111.9C130.1 3.19995 147.6 10.8999 159.9 24.3999C172.2 37.7999 178.3 55.8999 176.7 73.9999L165.8 197.7C162.8 231.6 135 257.1 101 257.1Z" fill="#3670B6"/>
<path d="M187.5 381.3C199.9 396.033 206.1 412.567 206.1 430.9C205.7 451.967 198.5 469.6 184.5 483.8C170.5 498.067 153.5 505.2 133.5 505.2H50.4001C35.6668 505.2 27.0334 501.2 24.5001 493.2C23.2334 489.6 22.6001 484.1 22.6001 476.7V301.4C22.6001 296.333 22.7668 292.633 23.1001 290.3C23.3668 288.033 24.3668 285.3 26.1001 282.1C29.0334 276.433 37.2334 273.6 50.7001 273.6H130.3C149.7 273.6 165.933 280.333 179 293.8C192.667 307.467 199.5 323.9 199.5 343.1C199.5 356.967 195.5 369.7 187.5 381.3ZM150.2 427.8C150.2 422.733 149.633 418.733 148.5 415.8C147.3 412.8 145.333 410.667 142.6 409.4C138.4 407.733 132.5 406.9 124.9 406.9C117.367 406.9 111.7 405.433 107.9 402.5C104.1 399.567 102.2 393.5 102.2 384.3C102.2 375.167 104.133 369.133 108 366.2C111.933 363.2 118.433 361.7 127.5 361.7C135.9 361.7 140.933 359.5 142.6 355.1C143.267 352.767 143.6 348.967 143.6 343.7C143.6 338.433 141.867 334.767 138.4 332.7C134.933 330.567 129.7 329.5 122.7 329.5H78.5001V449.2H130.3C143.567 449.2 150.2 442.067 150.2 427.8Z" fill="white"/>
<path d="M601.4 388.3L664.9 458.1C672.033 466.1 675.6 472.833 675.6 478.3C675.6 483.767 671.533 490.2 663.4 497.6C655.333 504.933 648.5 508.6 642.9 508.6C637.3 508.6 630.833 504.4 623.5 496L563.5 427.1L503.4 496C495.867 504.4 489.4 508.6 484 508.6C478.6 508.6 471.767 504.867 463.5 497.4C455.167 489.933 451 483.567 451 478.3C451 473.033 454.667 466.3 462 458.1L525.5 388.3L462 318.5C454.667 310.7 451 304.033 451 298.5C451 293.033 455.1 286.567 463.3 279.1C471.5 271.633 478.4 267.9 484 267.9C489.6 267.9 496.067 272.1 503.4 280.5L563.5 349.4L623.5 280.5C631.1 272.1 637.567 267.9 642.9 267.9C648.3 267.9 655.1 271.6 663.3 279C671.5 286.333 675.6 292.833 675.6 298.5C675.6 304.233 672.033 310.9 664.9 318.5L601.4 388.3Z" fill="white"/>
<path d="M416.5 304.9C393.567 282.367 366.533 271.1 335.4 271.1C320.867 271.1 306.733 274.033 293 279.9C279.333 285.833 267.233 293.933 256.7 304.2C246.167 314.533 237.733 327.333 231.4 342.6C225.067 357.867 221.9 374.233 221.9 391.7C221.9 423.767 233.133 451.367 255.6 474.5C278 497.7 305.233 509.3 337.3 509.3C369.3 509.3 396.233 497.533 418.1 474C440.033 450.533 451 422.1 451 388.7C451 355.367 439.5 327.433 416.5 304.9ZM363.8 333.6C363.8 327.3 368.8 322.3 375.1 322.3H383.8C390 322.3 395.1 327.3 395.1 333.6V342.3C395.1 348.6 390 353.6 383.8 353.6H375.1C368.8 353.6 363.8 348.6 363.8 342.3V333.6ZM278 333.6C278 327.4 283.1 322.3 289.3 322.3H298.1C304.3 322.3 309.4 327.4 309.4 333.6V342.3C309.4 348.6 304.3 353.7 298.1 353.7H289.3C283.1 353.7 278 348.6 278 342.3V333.6ZM395.9 413.6C395.9 443.1 372 467 342.4 467H330.5C301 467 277 443.1 277 413.6V380H395.9V413.6Z" fill="white"/>
<path d="M201 201.3H260.2C263.133 201.3 265.367 201.4 266.9 201.6C268.367 201.733 270.033 202.333 271.9 203.4C275.367 205.2 277.1 210.2 277.1 218.4C277.1 227.333 274.733 232.6 270 234.2C267.867 234.933 264.533 235.3 260 235.3H183.9C174.9 235.3 169.633 232.867 168.1 228C167.3 225.933 166.9 222.667 166.9 218.2V39.5001C166.9 32.9668 168.133 28.5001 170.6 26.1001C173 23.7668 177.6 22.6001 184.4 22.6001H260.2C263.133 22.6001 265.367 22.7001 266.9 22.9001C268.367 23.1001 270.033 23.7001 271.9 24.7001C275.367 26.5001 277.1 31.5001 277.1 39.7001C277.1 48.7001 274.733 53.9668 270 55.5001C267.867 56.2334 264.533 56.6001 260 56.6001H201V76.1001H239.1C242.033 76.1001 244.233 76.1667 245.7 76.3001C247.167 76.5001 248.867 77.1334 250.8 78.2001C254.267 80.0001 256 85.0001 256 93.2001C256 102.133 253.567 107.367 248.7 108.9C246.5 109.7 243.167 110.1 238.7 110.1H201V201.3Z" fill="white"/>
<path d="M451.8 201.3H511.1C514.034 201.3 516.234 201.4 517.7 201.6C519.167 201.733 520.867 202.333 522.8 203.4C526.267 205.2 528 210.2 528 218.4C528 227.333 525.634 232.6 520.9 234.2C518.7 234.933 515.367 235.3 510.9 235.3H434.7C425.7 235.3 420.434 232.867 418.9 228C418.167 225.933 417.8 222.667 417.8 218.2V39.5001C417.8 32.9668 419 28.5001 421.4 26.1001C423.867 23.7668 428.5 22.6001 435.3 22.6001H511.1C514.034 22.6001 516.234 22.7001 517.7 22.9001C519.167 23.1001 520.867 23.7001 522.8 24.7001C526.267 26.5001 528 31.5001 528 39.7001C528 48.7001 525.634 53.9668 520.9 55.5001C518.7 56.2334 515.367 56.6001 510.9 56.6001H451.8V76.1001H489.9C492.834 76.1001 495.034 76.1667 496.5 76.3001C497.967 76.5001 499.667 77.1334 501.6 78.2001C505.067 80.0001 506.8 85.0001 506.8 93.2001C506.8 102.133 504.367 107.367 499.5 108.9C497.3 109.7 493.967 110.1 489.5 110.1H451.8V201.3Z" fill="white"/>
<path d="M405.2 142.9C405.2 133.2 397.3 125.3 387.5 125.3H358C348.3 125.3 340.4 133.2 340.4 142.9V146C340.4 155.7 348.3 163.6 358 163.6H366.7V196H328.1V63.4H386C395.7 63.4 403.6 55.5 403.6 45.7V42.6C403.6 32.9 395.7 25 386 25H313.8C311.5 25 309.2 25.5 307.1 26.3C297.5 26.5 289.7 34.3 289.7 43.9V216.7C289.7 226.5 297.6 234.4 307.4 234.4H310.5C310.967 234.4 311.434 234.367 311.9 234.3C312.567 234.367 313.2 234.4 313.8 234.4H386C389.9 234.4 393.6 233.1 396.5 230.9C401.6 227.8 405.1 222.2 405.1 215.8V147.8C405.167 147.2 405.2 146.6 405.2 146V142.9Z" fill="white"/>
<path d="M647.7 26.3H644.6C634.9 26.3 627 34.2001 627 43.9001V136.2L579.5 37.7001C577.8 34.0001 574.9 31.2001 571.5 29.5001C568.6 27.5001 565.1 26.3 561.3 26.3H558.2C548.5 26.3 540.6 34.2001 540.6 43.9001V216.7C540.6 226.5 548.5 234.4 558.2 234.4H561.3C571 234.4 579 226.5 579 216.7V125L626 222.7C627.7 226.3 630.6 229.1 633.9 230.7C636.9 233 640.6 234.4 644.6 234.4H647.7C657.4 234.4 665.3 226.5 665.3 216.7V43.9001C665.3 34.2001 657.4 26.3 647.7 26.3Z" fill="white"/>
<path d="M143.2 39.7002C135.2 30.9002 123.8 25.9001 111.9 25.9001H52.9001C51.9001 25.9001 50.9334 26.0002 50.0001 26.2002C40.9001 26.2002 33.6001 33.5002 33.6001 42.5002V217.9C33.6001 226.9 40.9001 234.2 50.0001 234.2H51.4001C52.4001 234.333 53.4001 234.433 54.4001 234.5H101C123 234.5 141.3 217.7 143.3 195.7L154.2 72.1002C155.2 60.2002 151.2 48.4002 143.2 39.7002ZM119.3 69.3001L108.4 193C107.9 198.6 103.2 203 97.5001 203H66.9001V57.3001H108.4C112.6 57.3001 115.3 59.6001 116.5 60.9001C117.7 62.2001 119.7 65.1001 119.3 69.3001Z" fill="white"/>
</svg>