<svg width="389" height="183" viewBox="0 0 389 183" fill="none" xmlns="http://www.w3.org/2000/svg">
<g clip-path="url(#clip0_81_2767)">
<mask id="path-1-inside-1_81_2767" fill="white">
<path d="M-84.0001 192.683C-84.0001 131.237 -54.5708 72.3075 -2.18622 28.8585C50.1983 -14.5905 121.247 -38.9999 195.33 -38.9999C269.413 -38.9999 340.462 -14.5905 392.846 28.8585C445.231 72.3075 474.66 131.237 474.66 192.683L195.33 192.683H-84.0001Z"/>
</mask>
<path d="M-84.0001 192.683C-84.0001 131.237 -54.5708 72.3075 -2.18622 28.8585C50.1983 -14.5905 121.247 -38.9999 195.33 -38.9999C269.413 -38.9999 340.462 -14.5905 392.846 28.8585C445.231 72.3075 474.66 131.237 474.66 192.683L195.33 192.683H-84.0001Z" fill="#CCE3FF" stroke="#85BCFF" stroke-width="2" mask="url(#path-1-inside-1_81_2767)"/>
<mask id="path-2-inside-2_81_2767" fill="white">
<path d="M-54.2207 193.279C-54.2207 138.625 -28.0543 86.2093 18.5221 47.5631C65.0986 8.91696 128.27 -12.7943 194.139 -12.7943C260.008 -12.7943 323.179 8.91693 369.756 47.5631C416.332 86.2093 442.499 138.625 442.499 193.279L194.139 193.279H-54.2207Z"/>
</mask>
<path d="M-54.2207 193.279C-54.2207 138.625 -28.0543 86.2093 18.5221 47.5631C65.0986 8.91696 128.27 -12.7943 194.139 -12.7943C260.008 -12.7943 323.179 8.91693 369.756 47.5631C416.332 86.2093 442.499 138.625 442.499 193.279L194.139 193.279H-54.2207Z" fill="#85BCFF" stroke="#60A5FA" stroke-width="2" mask="url(#path-2-inside-2_81_2767)"/>
<mask id="path-3-inside-3_81_2767" fill="white">
<path d="M-26.8238 193.279C-26.8238 144.311 -3.35559 97.3494 38.418 62.7242C80.1917 28.0991 136.849 8.64682 195.926 8.64682C255.002 8.64682 311.66 28.099 353.433 62.7242C395.207 97.3494 418.675 144.311 418.675 193.279L195.926 193.279H-26.8238Z"/>
</mask>
<path d="M-26.8238 193.279C-26.8238 144.311 -3.35559 97.3494 38.418 62.7242C80.1917 28.0991 136.849 8.64682 195.926 8.64682C255.002 8.64682 311.66 28.099 353.433 62.7242C395.207 97.3494 418.675 144.311 418.675 193.279L195.926 193.279H-26.8238Z" fill="#60A5FA" stroke="#4A8AD8" stroke-width="2" mask="url(#path-3-inside-3_81_2767)"/>
<mask id="path-4-inside-4_81_2767" fill="white">
<path d="M-0.617706 192.088C-0.617706 149.123 20.0895 107.917 56.9486 77.5366C93.8076 47.1558 143.799 30.088 195.926 30.088C248.052 30.088 298.044 47.1558 334.903 77.5366C371.762 107.917 392.469 149.123 392.469 192.088L195.926 192.088H-0.617706Z"/>
</mask>
<path d="M-0.617706 192.088C-0.617706 149.123 20.0895 107.917 56.9486 77.5366C93.8076 47.1558 143.799 30.088 195.926 30.088C248.052 30.088 298.044 47.1558 334.903 77.5366C371.762 107.917 392.469 149.123 392.469 192.088L195.926 192.088H-0.617706Z" fill="#85BCFF" stroke="#4A8AD8" stroke-width="2" mask="url(#path-4-inside-4_81_2767)"/>
<mask id="path-5-inside-5_81_2767" fill="white">
<path d="M32.735 192.087C32.735 156.389 49.9283 122.152 80.5324 96.9091C111.137 71.6662 152.645 57.4849 195.926 57.4849C239.207 57.4849 280.715 71.6662 311.319 96.9091C341.923 122.152 359.116 156.389 359.116 192.087L195.926 192.087H32.735Z"/>
</mask>
<path d="M32.735 192.087C32.735 156.389 49.9283 122.152 80.5324 96.9091C111.137 71.6662 152.645 57.4849 195.926 57.4849C239.207 57.4849 280.715 71.6662 311.319 96.9091C341.923 122.152 359.116 156.389 359.116 192.087L195.926 192.087H32.735Z" fill="#CCE3FF" stroke="#60A5FA" stroke-width="2" mask="url(#path-5-inside-5_81_2767)"/>
<mask id="path-6-inside-6_81_2767" fill="white">
<path d="M64.8967 192.683C64.8967 164.092 78.7015 136.673 103.274 116.456C127.847 96.2395 161.175 84.8819 195.926 84.8819C230.677 84.8819 264.005 96.2395 288.577 116.456C313.15 136.673 326.955 164.092 326.955 192.683L195.926 192.683H64.8967Z"/>
</mask>
<path d="M64.8967 192.683C64.8967 164.092 78.7015 136.673 103.274 116.456C127.847 96.2395 161.175 84.8819 195.926 84.8819C230.677 84.8819 264.005 96.2395 288.577 116.456C313.15 136.673 326.955 164.092 326.955 192.683L195.926 192.683H64.8967Z" fill="#EFF6FF" stroke="#85BCFF" stroke-width="2" mask="url(#path-6-inside-6_81_2767)"/>
<mask id="path-7-inside-7_81_2767" fill="white">
<path d="M86.3378 192.683C86.3378 168.831 97.8836 145.956 118.435 129.09C138.987 112.225 166.861 102.75 195.926 102.75C224.99 102.75 252.864 112.225 273.416 129.09C293.968 145.956 305.514 168.831 305.514 192.683L195.926 192.683H86.3378Z"/>
</mask>
<path d="M86.3378 192.683C86.3378 168.831 97.8836 145.956 118.435 129.09C138.987 112.225 166.861 102.75 195.926 102.75C224.99 102.75 252.864 112.225 273.416 129.09C293.968 145.956 305.514 168.831 305.514 192.683L195.926 192.683H86.3378Z" fill="#EFF6FF" stroke="#85BCFF" stroke-width="2" mask="url(#path-7-inside-7_81_2767)"/>
<path d="M45.4172 29C46.0472 29.06 46.6472 29.4 47.0272 29.97L47.1572 30.17C48.3972 31.9799 49.6772 32.57 51.2872 33.32C53.1172 34.17 55.3872 35.22 57.3672 38.2C59.3472 41.18 59.4472 43.6899 59.5272 45.7099C59.5972 47.49 59.6472 48.9 60.8572 50.75C60.8572 50.76 60.8772 50.78 60.8872 50.79L60.9772 50.9199C62.2272 52.7699 63.5172 53.37 65.1372 54.13C66.9672 54.9801 69.2372 56.0301 71.2172 59.0101C71.8872 60.0201 71.6172 61.3899 70.6072 62.07C69.5972 62.7399 68.2272 62.4699 67.5472 61.4599C66.2572 59.5199 64.9372 58.91 63.2772 58.1399C61.3872 57.26 59.2472 56.27 57.3172 53.3899C55.2972 50.42 55.2072 48.0099 55.1272 45.8899C55.0572 44.0599 54.9972 42.6099 53.7072 40.6599C52.4172 38.7199 51.0972 38.11 49.4372 37.34C47.5972 36.49 45.5272 35.53 43.6372 32.84C43.6072 32.81 43.5872 32.77 43.5672 32.74L43.5173 32.66C43.4673 32.58 43.4172 32.5099 43.3572 32.4299C42.6972 31.41 42.9773 30.05 43.9872 29.38C44.4272 29.09 44.9372 28.98 45.4272 29.02L45.4172 29Z" fill="#4A8AD8" stroke="#194172" stroke-miterlimit="10"/>
<path d="M74.4172 32C75.0472 32.06 75.6472 32.4 76.0272 32.97L76.1572 33.17C77.3972 34.98 78.6772 35.57 80.2872 36.32C82.1172 37.17 84.3872 38.22 86.3672 41.2C88.3472 44.18 88.4472 46.69 88.5272 48.71C88.5972 50.49 88.6472 51.9 89.8572 53.75C89.8572 53.76 89.8772 53.78 89.8872 53.79L89.9772 53.92C91.2272 55.77 92.5172 56.37 94.1372 57.13C95.9672 57.98 98.2372 59.03 100.217 62.01C100.887 63.02 100.617 64.39 99.6072 65.07C98.5972 65.74 97.2272 65.47 96.5472 64.46C95.2572 62.52 93.9372 61.91 92.2772 61.14C90.3872 60.26 88.2472 59.27 86.3172 56.39C84.2972 53.42 84.2072 51.01 84.1272 48.89C84.0572 47.06 83.9972 45.61 82.7072 43.66C81.4172 41.72 80.0972 41.11 78.4372 40.34C76.5972 39.49 74.5272 38.53 72.6372 35.84C72.6072 35.81 72.5872 35.77 72.5672 35.74L72.5172 35.66C72.4672 35.58 72.4172 35.51 72.3572 35.43C71.6972 34.41 71.9772 33.05 72.9872 32.38C73.4272 32.09 73.9372 31.98 74.4272 32.02L74.4172 32Z" fill="#60A5FA" stroke="#194172" stroke-miterlimit="10"/>
<path d="M318.168 36C317.538 36.06 316.938 36.4 316.558 36.97L316.428 37.17C315.188 38.98 313.908 39.57 312.298 40.32C310.468 41.17 308.198 42.22 306.218 45.2C304.238 48.18 304.138 50.69 304.058 52.71C303.988 54.49 303.938 55.9 302.728 57.75C302.728 57.76 302.708 57.78 302.698 57.79L302.608 57.92C301.358 59.77 300.068 60.37 298.448 61.13C296.618 61.98 294.348 63.03 292.368 66.01C291.698 67.02 291.968 68.39 292.978 69.07C293.988 69.74 295.358 69.47 296.038 68.46C297.328 66.52 298.648 65.91 300.308 65.14C302.198 64.26 304.338 63.27 306.268 60.39C308.288 57.42 308.378 55.01 308.458 52.89C308.528 51.06 308.588 49.61 309.878 47.66C311.168 45.72 312.488 45.11 314.148 44.34C315.988 43.49 318.058 42.53 319.948 39.84C319.978 39.81 319.998 39.77 320.018 39.74L320.068 39.66C320.118 39.58 320.168 39.51 320.228 39.43C320.888 38.41 320.608 37.05 319.598 36.38C319.158 36.09 318.648 35.98 318.158 36.02L318.168 36Z" fill="#85BCFF" stroke="#194172" stroke-miterlimit="10"/>
<path d="M93.2003 117.58C92.6703 117.07 91.6203 109.94 90.6603 110C89.7003 110.06 88.8703 117.13 88.4203 117.59C87.5203 118.52 80.9503 119.19 81.0003 120.09C81.0503 120.99 87.5103 121.42 88.4203 122.3C88.9303 122.79 90.0003 129.94 90.9603 129.88C91.9203 129.82 92.7403 122.78 93.2003 122.29C94.0703 121.39 100.69 120.69 100.64 119.78C100.59 118.87 94.0803 118.42 93.2003 117.56V117.58Z" fill="#85BCFF" stroke="#194172" stroke-miterlimit="10"/>
<path fill-rule="evenodd" clip-rule="evenodd" d="M49.2625 120.262L49.8025 120.573C50.1025 120.743 50.4425 120.843 50.7925 120.843H51.4125C52.1225 120.843 52.7725 121.223 53.1325 121.833L53.4425 122.373C53.6125 122.673 53.8625 122.923 54.1725 123.103L54.7125 123.413C55.3225 123.763 55.7025 124.423 55.7025 125.133V125.753C55.7025 126.103 55.7925 126.443 55.9725 126.743L56.2825 127.283C56.6325 127.893 56.6325 128.653 56.2825 129.262L55.9725 129.803C55.8025 130.103 55.7025 130.443 55.7025 130.793V131.413C55.7025 132.123 55.3225 132.773 54.7125 133.133L54.1725 133.443C53.8725 133.613 53.6225 133.863 53.4425 134.173L53.1325 134.713C52.7825 135.323 52.1225 135.703 51.4125 135.703H50.7925C50.4425 135.703 50.1025 135.793 49.8025 135.973L49.2625 136.283C48.6525 136.633 47.8925 136.633 47.2825 136.283L46.7425 135.973C46.4425 135.803 46.1025 135.703 45.7525 135.703H45.1325C44.4225 135.703 43.7725 135.323 43.4125 134.713L43.1025 134.173C42.9325 133.873 42.6825 133.623 42.3725 133.443L41.8325 133.133C41.2225 132.783 40.8425 132.123 40.8425 131.413V130.793C40.8425 130.443 40.7525 130.103 40.5725 129.803L40.2625 129.262C39.9125 128.653 39.9125 127.893 40.2625 127.283L40.5725 126.743C40.7425 126.443 40.8425 126.103 40.8425 125.753V125.133C40.8425 124.423 41.2225 123.773 41.8325 123.413L42.3725 123.103C42.6725 122.933 42.9225 122.683 43.1025 122.373L43.4125 121.833C43.7625 121.223 44.4225 120.843 45.1325 120.843H45.7525C46.1025 120.843 46.4425 120.753 46.7425 120.573L47.2825 120.262C47.8925 119.912 48.6525 119.912 49.2625 120.262Z" fill="#60A5FA" stroke="#194172" stroke-miterlimit="10"/>
<path d="M282.448 102.162C282.565 101.604 282.895 101.101 283.406 100.759C285.914 99.1285 286.69 97.4726 287.673 95.3694C288.745 93.0808 289.966 90.4759 293.502 88.1317C297.036 85.7973 299.899 85.6926 302.422 85.5983C304.688 85.5115 306.489 85.4498 308.892 83.8796L309.058 83.7713C311.446 82.1775 312.206 80.5489 313.169 78.4926C314.241 76.204 315.462 73.599 318.998 71.2549C322.533 68.9205 325.395 68.8157 327.918 68.7215C330.184 68.6347 331.985 68.573 334.377 67.0105L334.471 66.9487C336.783 65.3796 337.531 63.7587 338.487 61.7318C339.56 59.4432 340.781 56.8382 344.317 54.4941C347.851 52.1597 350.714 52.0549 353.237 51.9607C355.554 51.8744 357.376 51.807 359.861 50.1414C362.402 48.498 363.181 46.8323 364.161 44.7389C365.234 42.4503 366.454 39.8454 369.991 37.5012C371.011 36.8262 372.371 37.1115 373.048 38.122C373.723 39.1422 373.438 40.5026 372.428 41.1796C369.925 42.8313 369.109 44.581 368.164 46.6001C367.09 48.8985 365.869 51.5035 362.298 53.8199C358.801 56.1722 355.938 56.277 353.406 56.3692C351.181 56.4544 349.256 56.5209 346.754 58.1725C344.252 59.8241 343.435 61.5738 342.491 63.593C341.454 65.8074 340.288 68.3011 337.017 70.5477C337.017 70.5477 336.944 70.6039 336.908 70.6271C336.814 70.689 336.729 70.7529 336.634 70.8148C333.286 72.943 330.537 73.041 328.099 73.1223C325.874 73.2075 323.949 73.2739 321.457 74.9276C318.955 76.5793 318.138 78.329 317.194 80.3481C316.137 82.6094 314.939 85.1577 311.517 87.4441C307.998 89.8021 305.135 89.9069 302.612 90.0011C300.388 90.0864 298.463 90.1528 295.961 91.8044C293.459 93.4561 292.642 95.2058 291.698 97.2249C290.623 99.5233 289.402 102.128 285.831 104.445C284.813 105.11 283.445 104.813 282.78 103.795C282.447 103.285 282.356 102.694 282.471 102.146L282.448 102.162Z" fill="#60A5FA" stroke="#194172" stroke-miterlimit="10"/>
<path fill-rule="evenodd" clip-rule="evenodd" d="M106.634 167.695L99.9343 166.71C99.3891 166.632 98.8839 167.009 98.8064 167.544L97.8123 174.243C97.684 175.125 96.5548 175.406 96.0262 174.687L87.3525 162.997C87.0201 162.556 87.1155 161.932 87.5565 161.6L97.5057 154.218C97.9467 153.885 98.5707 153.981 98.9032 154.422L107.577 166.111C108.106 166.821 107.506 167.822 106.634 167.685L106.634 167.695Z" fill="#C2E6F5" stroke="#194172" stroke-miterlimit="10"/>
<path fill-rule="evenodd" clip-rule="evenodd" d="M131.845 149.565L127.895 149.965C127.575 149.995 127.345 150.285 127.375 150.605L127.775 154.555C127.825 155.075 127.225 155.395 126.825 155.065L120.215 149.665C119.965 149.465 119.925 149.095 120.135 148.845L124.725 143.215C124.925 142.965 125.295 142.925 125.545 143.135L132.155 148.535C132.555 148.865 132.365 149.515 131.845 149.565Z" fill="#DDDAFF" stroke="#194172" stroke-miterlimit="10"/>
<path d="M268.52 174.04C271.568 174.04 274.04 171.569 274.04 168.52C274.04 165.471 271.568 163 268.52 163C265.471 163 263 165.471 263 168.52C263 171.569 265.471 174.04 268.52 174.04Z" fill="#DDDAFF" stroke="#194172" stroke-miterlimit="10"/>
<path d="M291.27 148.54C299.151 148.54 305.54 142.151 305.54 134.27C305.54 126.389 299.151 120 291.27 120C283.389 120 277 126.389 277 134.27C277 142.151 283.389 148.54 291.27 148.54Z" fill="#CCE3FF" stroke="#194172" stroke-miterlimit="10"/>
<path fill-rule="evenodd" clip-rule="evenodd" d="M280.939 134.99C280.939 139.56 283.969 143.75 288.599 144.98C294.119 146.46 299.789 143.18 301.269 137.66C301.509 136.76 301.609 135.87 301.609 134.98H280.939V134.99Z" fill="#EFF6FF" stroke="#194172" stroke-miterlimit="10"/>
</g>
<defs>
<clipPath id="clip0_81_2767">
<rect width="389" height="183" fill="white"/>
</clipPath>
</defs>
</svg>
